# xmcd
#
# Track frame offsets:
#	150
#	18781
#	34155
#	55389
#	72665
#	94937
#	111923
#	128474
#	153610
#	176305
#	199683
#	217780
#	242826
#	254857
#	270178
#
# Disc length: 3871 seconds
#
# Revision: 0
# Processed by: cddbd v1.5.2PL0 Copyright (c) Steve Scherf et al.
# Submitted via: audiograbber 1.83.01
#
DISCID=d00f1d0f
DTITLE=Various Artist - Mustique 2006
DYEAR=2006
DGENRE=Blues
TTITLE0=Dana Gillespie - Drinking Wine
TTITLE1=Eugene Bridges - In Your Arms Tonight
TTITLE2=Jerimiah Marques - This Is Hip
TTITLE3=Luddy Samms - Sick And Tired
TTITLE4=Corrina Greyson - Never Make A Move Too Soon
TTITLE5=Little George Sueref - Finger Licking
TTITLE6=Dino Baptiste - Ain't Got No Home
TTITLE7=Felix Dennis - The Comeback
TTITLE8=Corrina Greyson - Why Didn't You Call Me
TTITLE9=Jerimiah Marques - Howling Wolf
TTITLE10=Dana Gillespie - Be My Sugar
TTITLE11=Little George Sueref - Tell Your Mother
TTITLE12=Luddy Samms - Hard To Handle
TTITLE13=Eugene Bridges - Real Hero
TTITLE14=Dino Baptiste - I'm A Boogie Man
EXTD=
EXTT0=
EXTT1=
EXTT2=
EXTT3=
EXTT4=
EXTT5=
EXTT6=
EXTT7=
EXTT8=
EXTT9=
EXTT10=
EXTT11=
EXTT12=
EXTT13=
EXTT14=
PLAYORDER=
